<svg viewBox="0 0 200 200" xmlns="http://www.w3.org/2000/svg">
  <defs>
    <linearGradient id="loupblancBg" x1="0%" y1="0%" x2="100%" y2="100%">
      <stop offset="0%" style="stop-color:#f5f5f5;stop-opacity:1" />
      <stop offset="100%" style="stop-color:#e0e0e0;stop-opacity:1" />
    </linearGradient>
  </defs>
  <circle cx="100" cy="100" r="100" fill="url(#loupblancBg)"/>
  <path d="M 100 50 L 120 70 L 140 60 L 130 80 L 145 95 L 120 90 L 115 115 L 100 100 L 85 115 L 80 90 L 55 95 L 70 80 L 60 60 L 80 70 Z" fill="#e0e0e0" stroke="#999" stroke-width="2"/>
  <circle cx="90" cy="75" r="6" fill="#ffff00"/>
  <circle cx="110" cy="75" r="6" fill="#ffff00"/>
  <circle cx="90" cy="75" r="3" fill="#000"/>
  <circle cx="110" cy="75" r="3" fill="#000"/>
  <path d="M 100 90 L 95 100 L 100 105 L 105 100 Z" fill="#ddd"/>
  <circle cx="140" cy="60" r="15" fill="none" stroke="#999" stroke-width="2" stroke-dasharray="5,5"/>
  <text x="100" y="200" font-size="16" text-anchor="middle" fill="#333" font-weight="bold">Loup Blanc</text>
</svg>