<svg viewBox="0 0 200 200" xmlns="http://www.w3.org/2000/svg">
  <defs>
    <linearGradient id="renardBg" x1="0%" y1="0%" x2="100%" y2="100%">
      <stop offset="0%" style="stop-color:#ff6b35;stop-opacity:1" />
      <stop offset="100%" style="stop-color:#e53935;stop-opacity:1" />
    </linearGradient>
  </defs>
  <circle cx="100" cy="100" r="100" fill="url(#renardBg)"/>
  <polygon points="100,50 115,75 125,65 120,50" fill="#ff6b35"/>
  <polygon points="100,50 85,75 75,65 80,50" fill="#ff6b35"/>
  <circle cx="100" cy="80" r="28" fill="#ff8c42"/>
  <circle cx="90" cy="75" r="6" fill="#ffff00"/>
  <circle cx="110" cy="75" r="6" fill="#ffff00"/>
  <circle cx="90" cy="75" r="3" fill="#000"/>
  <circle cx="110" cy="75" r="3" fill="#000"/>
  <circle cx="100" cy="90" r="5" fill="#ffdbac"/>
  <path d="M 95 95 L 100 100 L 105 95" fill="#ffdbac"/>
  <rect x="75" y="108" width="50" height="55" fill="#ff8c42"/>
  <line x1="75" y1="145" x2="60" y2="185" stroke="#ffdbac" stroke-width="5"/>
  <line x1="125" y1="145" x2="140" y2="185" stroke="#ffdbac" stroke-width="5"/>
  <text x="100" y="200" font-size="20" text-anchor="middle" fill="#333" font-weight="bold">Renard</text>
</svg>